<svg width="1440" height="1024" viewBox="0 0 1440 1024" fill="none" xmlns="http://www.w3.org/2000/svg">
<g id="Desktop - 1" clip-path="url(#clip0)">
<rect width="1440" height="1024" fill="white"/>
<g id="scene">
<g id="Group 1">
<rect id="Rectangle 2" y="822" width="1442" height="199" fill="#FFE1C6"/>
<rect id="Rectangle 3" y="583" width="1442" height="236" fill="url(#paint0_linear)"/>
<rect id="Rectangle 1" width="1439" height="583" fill="url(#paint1_linear)"/>
</g>
</g>
<g id="buildings">
<path id="Vector" d="M1407.58 567.343C1405.14 568.531 1402.88 570.008 1400.84 571.738C1398.77 570 1396.47 568.522 1394 567.343C1391.56 568.531 1389.3 570.008 1387.26 571.738C1385.19 570 1382.89 568.522 1380.42 567.343C1380.42 567.343 1369.86 572.245 1369.89 578.235C1369.89 578.385 1369.9 578.534 1369.91 578.683C1370.27 582.605 1381.19 583.604 1387.18 581.756C1391.62 582.951 1396.32 582.951 1400.76 581.756C1406.73 583.633 1417.87 582.558 1418.19 578.591C1418.21 578.442 1418.21 578.293 1418.21 578.143C1418.18 572.153 1407.58 567.343 1407.58 567.343Z" fill="#98E176"/>
<path id="Vector_2" d="M9.3648 361.281L0 354.208L52.4367 310H185.401V348.903L99.2558 403.721L9.3648 361.281Z" fill="#B53EBF"/>
<path id="Vector_3" d="M209.304 334.797V310.883H191.651V316.739L185.061 310L141.989 354.208L125.135 364.818L99 545.109L138.412 582.325H230.008V355.977L209.304 334.797Z" fill="#CF6FBA"/>
<path id="Vector_4" d="M142.329 354.208H0.000427246V582.325H142.329V354.208Z" fill="#FEBAEF"/>
<path id="Vector_5" d="M398.345 706.818H133.701V716.016H398.345V706.818Z" fill="#FBEE7F"/>
<path id="Vector_6" d="M81.4647 526.622H55.2463V582.325H81.4647V526.622Z" fill="#BF30A0"/>
<path id="Vector_7" d="M27.1559 542.537V533.696H15.9191V542.537H26.2191H27.1559Z" fill="#9E2EB0"/>
<path id="Vector_8" d="M26.2191 549.611H15.9191V558.453H27.1559V549.611H26.2191Z" fill="#9E2EB0"/>
<path id="Vector_9" d="M45.8827 533.696H34.6462V542.538H45.8827V533.696Z" fill="#9E2EB0"/>
<path id="Vector_10" d="M45.8827 549.611H34.6462V558.453H45.8827V549.611Z" fill="#9E2EB0"/>
<path id="Vector_11" d="M103.938 542.537V533.696H92.7014V542.537H103.001H103.938Z" fill="#9E2EB0"/>
<path id="Vector_12" d="M103.001 549.611H92.7014V558.453H103.938V549.611H103.001Z" fill="#9E2EB0"/>
<path id="Vector_13" d="M122.665 533.696H111.429V542.538H122.665V533.696Z" fill="#9E2EB0"/>
<path id="Vector_14" d="M122.665 549.611H111.429V558.453H122.665V549.611Z" fill="#9E2EB0"/>
<path id="Vector_15" d="M182.592 365.703V356.86H171.356V365.703H181.657H182.592Z" fill="#3F3D56"/>
<path id="Vector_16" d="M181.657 372.776H171.356V381.618H182.592V372.776H181.657Z" fill="#3F3D56"/>
<path id="Vector_17" d="M201.32 356.861H190.084V365.702H201.32V356.861Z" fill="#3F3D56"/>
<path id="Vector_18" d="M201.32 372.776H190.084V381.618H201.32V372.776Z" fill="#3F3D56"/>
<path id="Vector_19" d="M182.592 415.217V406.375H171.356V415.217H181.657H182.592Z" fill="#3F3D56"/>
<path id="Vector_20" d="M181.657 422.29H171.356V431.131H182.592V422.29H181.657Z" fill="#3F3D56"/>
<path id="Vector_21" d="M201.32 406.375H190.084V415.216H201.32V406.375Z" fill="#3F3D56"/>
<path id="Vector_22" d="M201.32 422.29H190.084V431.131H201.32V422.29Z" fill="#3F3D56"/>
<path id="Vector_23" d="M182.592 464.73V455.889H171.356V464.73H181.657H182.592Z" fill="#3F3D56"/>
<path id="Vector_24" d="M181.657 471.804H171.356V480.645H182.592V471.804H181.657Z" fill="#3F3D56"/>
<path id="Vector_25" d="M201.32 455.888H190.084V464.73H201.32V455.888Z" fill="#3F3D56"/>
<path id="Vector_26" d="M201.32 471.804H190.084V480.645H201.32V471.804Z" fill="#3F3D56"/>
<path id="Vector_27" d="M182.592 514.244V505.403H171.356V514.244H181.657H182.592Z" fill="#3F3D56"/>
<path id="Vector_28" d="M181.657 521.318H171.356V530.159H182.592V521.318H181.657Z" fill="#3F3D56"/>
<path id="Vector_29" d="M201.32 505.402H190.084V514.244H201.32V505.402Z" fill="#3F3D56"/>
<path id="Vector_30" d="M201.32 521.317H190.084V530.159H201.32V521.317Z" fill="#3F3D56"/>
<path id="Vector_31" d="M124.538 365.702H15.9188V386.923H124.538V365.702Z" fill="#9E2EB0"/>
<path id="Vector_32" d="M124.538 408.143H15.9188V429.363H124.538V408.143Z" fill="#9E2EB0"/>
<path id="Vector_33" d="M124.967 450.83H16.348V472.05H124.967V450.83Z" fill="#9E2EB0"/>
<path id="Vector_34" d="M124.967 493.27H16.348V514.49H124.967V493.27Z" fill="#9E2EB0"/>
<path id="Vector_35" d="M222.431 568.625C219.997 569.813 217.734 571.29 215.696 573.021C213.626 571.282 211.325 569.805 208.851 568.625C206.417 569.813 204.154 571.29 202.117 573.021C200.046 571.282 197.745 569.805 195.272 568.625C195.272 568.625 184.716 573.527 184.745 579.518C184.746 579.668 184.753 579.817 184.767 579.965C185.127 583.887 196.04 584.886 202.036 583.038C206.474 584.233 211.177 584.233 215.615 583.038C221.585 584.916 232.721 583.84 233.046 579.873C233.058 579.725 233.064 579.575 233.064 579.426C233.034 573.435 222.431 568.625 222.431 568.625Z" fill="#6C63FF"/>
<path id="Vector_36" d="M173.679 361.281L164.314 354.208L216.751 310H349.715V348.903L263.57 403.721L173.679 361.281Z" fill="#B53EBF"/>
<path id="Vector_37" d="M373.618 334.797V310.883H355.965V316.739L349.375 310L306.303 354.208L289.449 364.818L263.314 545.109L302.727 582.325H394.322V355.977L373.618 334.797Z" fill="#CF6FBA"/>
<path id="Vector_38" d="M306.643 354.208H164.315V582.325H306.643V354.208Z" fill="#FFB9F8"/>
<path id="Vector_39" d="M245.779 526.622H219.561V582.325H245.779V526.622Z" fill="#BF30A0"/>
<path id="Vector_40" d="M191.47 542.537V533.696H180.233V542.537H190.533H191.47Z" fill="#9E2EB0"/>
<path id="Vector_41" d="M190.533 549.611H180.233V558.453H191.47V549.611H190.533Z" fill="#9E2EB0"/>
<path id="Vector_42" d="M210.197 533.696H198.96V542.538H210.197V533.696Z" fill="#9E2EB0"/>
<path id="Vector_43" d="M210.197 549.611H198.96V558.453H210.197V549.611Z" fill="#9E2EB0"/>
<path id="Vector_44" d="M268.252 542.537V533.696H257.016V542.537H267.316H268.252Z" fill="#9E2EB0"/>
<path id="Vector_45" d="M267.316 549.611H257.016V558.453H268.252V549.611H267.316Z" fill="#9E2EB0"/>
<path id="Vector_46" d="M286.979 533.696H275.743V542.538H286.979V533.696Z" fill="#9E2EB0"/>
<path id="Vector_47" d="M286.979 549.611H275.743V558.453H286.979V549.611Z" fill="#9E2EB0"/>
<path id="Vector_48" d="M346.907 365.703V356.86H335.67V365.703H345.972H346.907Z" fill="#3F3D56"/>
<path id="Vector_49" d="M345.972 372.776H335.67V381.618H346.907V372.776H345.972Z" fill="#3F3D56"/>
<path id="Vector_50" d="M365.635 356.861H354.398V365.702H365.635V356.861Z" fill="#3F3D56"/>
<path id="Vector_51" d="M365.635 372.776H354.398V381.618H365.635V372.776Z" fill="#3F3D56"/>
<path id="Vector_52" d="M346.907 415.217V406.375H335.67V415.217H345.972H346.907Z" fill="#3F3D56"/>
<path id="Vector_53" d="M345.972 422.29H335.67V431.131H346.907V422.29H345.972Z" fill="#3F3D56"/>
<path id="Vector_54" d="M365.635 406.375H354.398V415.216H365.635V406.375Z" fill="#3F3D56"/>
<path id="Vector_55" d="M365.635 422.29H354.398V431.131H365.635V422.29Z" fill="#3F3D56"/>
<path id="Vector_56" d="M346.907 464.73V455.889H335.67V464.73H345.972H346.907Z" fill="#3F3D56"/>
<path id="Vector_57" d="M345.972 471.804H335.67V480.645H346.907V471.804H345.972Z" fill="#3F3D56"/>
<path id="Vector_58" d="M365.635 455.888H354.398V464.73H365.635V455.888Z" fill="#3F3D56"/>
<path id="Vector_59" d="M365.635 471.804H354.398V480.645H365.635V471.804Z" fill="#3F3D56"/>
<path id="Vector_60" d="M346.907 514.244V505.403H335.67V514.244H345.972H346.907Z" fill="#3F3D56"/>
<path id="Vector_61" d="M345.972 521.318H335.67V530.159H346.907V521.318H345.972Z" fill="#3F3D56"/>
<path id="Vector_62" d="M365.635 505.402H354.398V514.244H365.635V505.402Z" fill="#3F3D56"/>
<path id="Vector_63" d="M365.635 521.317H354.398V530.159H365.635V521.317Z" fill="#3F3D56"/>
<path id="Vector_64" d="M288.616 366.18H179.997V387.4H288.616V366.18Z" fill="#9E2EB0"/>
<path id="Vector_65" d="M288.852 408.143H180.233V429.363H288.852V408.143Z" fill="#9E2EB0"/>
<path id="Vector_66" d="M288.616 451.061H179.997V472.281H288.616V451.061Z" fill="#9E2EB0"/>
<path id="Vector_67" d="M288.852 493.024H180.233V514.244H288.852V493.024Z" fill="#9E2EB0"/>
<path id="Vector_68" d="M493.731 412.396H489.197V581.523H493.731V412.396Z" fill="#935D2B"/>
<path id="Vector_69" d="M537.981 461.617C537.99 463.478 537.972 465.329 537.927 467.172C536.301 533.749 451.77 534.117 449.494 467.557C449.431 465.715 449.395 463.863 449.385 462.003C449.022 387.583 493.025 327.061 493.025 327.061C493.025 327.061 537.618 387.197 537.981 461.617Z" fill="url(#paint2_linear)"/>
<path id="Vector_70" d="M477.961 568.25C475.527 569.438 473.263 570.915 471.226 572.646C469.155 570.907 466.854 569.43 464.381 568.25C461.947 569.438 459.684 570.915 457.646 572.646C455.575 570.907 453.275 569.43 450.801 568.25C450.801 568.25 440.245 573.152 440.275 579.143C440.275 579.293 440.282 579.442 440.296 579.59C440.656 583.512 451.57 584.511 457.565 582.663C462.003 583.858 466.707 583.858 471.145 582.663C477.115 584.541 488.25 583.465 488.576 579.498C488.588 579.35 488.594 579.201 488.593 579.051C488.564 573.06 477.961 568.25 477.961 568.25Z" fill="#4F8536"/>
<path id="Vector_71" d="M604.426 510.143L598.808 501.301L651.245 420.393H786.081V432.771L737.39 520.753L681.208 531.363L604.426 510.143Z" fill="#229299"/>
<path id="Vector_72" d="M809.971 483.446V417.311H792.318V426.035L786.76 420.073L741.815 500.981L734.323 508.055L724.96 543.422L741.815 582.325H827.96V502.749L809.971 483.446Z" fill="#28CAB6"/>
<path id="Vector_73" d="M741.55 500.981H599.221V582.326H741.55V500.981Z" fill="#F2F2F2"/>
<path id="Vector_74" d="M721.886 526.622H691.922V551.379H721.886V526.622Z" fill="#2E8BBF"/>
<path id="Vector_75" d="M679.935 525.738H653.717V582.326H679.935V525.738Z" fill="#28CAB6"/>
<path id="Vector_76" d="M623.237 534.842V526.001H612V534.842H622.3H623.237Z" fill="#3F3D56"/>
<path id="Vector_77" d="M622.631 541.654H612.331V550.495H623.568V541.654H622.631Z" fill="#3F3D56"/>
<path id="Vector_78" d="M641.964 526H630.727V534.842H641.964V526Z" fill="#3F3D56"/>
<path id="Vector_79" d="M642.295 541.653H631.058V550.495H642.295V541.653Z" fill="#3F3D56"/>
<path id="Vector_80" d="M781.815 536.746V527.905H770.578V536.746H780.878H781.815Z" fill="#2E8BBF"/>
<path id="Vector_81" d="M780.878 543.82H770.578V552.661H781.815V543.82H780.878Z" fill="#2E8BBF"/>
<path id="Vector_82" d="M800.541 527.905H789.305V536.746H800.541V527.905Z" fill="#2E8BBF"/>
<path id="Vector_83" d="M800.541 543.82H789.305V552.662H800.541V543.82Z" fill="#2E8BBF"/>
<path id="Vector_84" d="M663.809 453.026L662.33 450.7L676.127 429.412H711.604V432.668L698.794 455.818L684.011 458.61L663.809 453.026Z" fill="#1C676B"/>
<path id="Vector_85" d="M711.565 429.713L699.741 451.002L697.77 452.863L695.305 462.168L699.741 472.403H722.406V451.466L711.565 429.713Z" fill="#CCCCCC"/>
<path id="Vector_86" d="M699.74 451.001H662.292V472.404H699.74V451.001Z" fill="#F2F2F2"/>
<path id="Vector_87" d="M678.157 460.225V456.002H672.793V460.225H677.711H678.157Z" fill="#3F3D56"/>
<path id="Vector_88" d="M677.711 463.602H672.793V467.822H678.157V463.602H677.711Z" fill="#3F3D56"/>
<path id="Vector_89" d="M687.099 456.002H681.734V460.224H687.099V456.002Z" fill="#3F3D56"/>
<path id="Vector_90" d="M687.099 463.601H681.734V467.823H687.099V463.601Z" fill="#3F3D56"/>
<path id="Vector_91" d="M774.536 510.143L768.917 501.301L821.353 420.393H956.191V432.771L907.5 520.753L851.318 531.363L774.536 510.143Z" fill="#229299"/>
<path id="Vector_92" d="M980.16 483.446V417.311H962.507V426.035L956.949 420.073L912.004 500.981L904.513 508.055L895.148 543.422L912.004 582.325H998.149V502.749L980.16 483.446Z" fill="#28CAB6"/>
<path id="Vector_93" d="M911.296 500.981H768.968V582.325H911.296V500.981Z" fill="#F2F2F2"/>
<path id="Vector_94" d="M891.964 527.378H862V552.134H891.964V527.378Z" fill="#2E8BBF"/>
<path id="Vector_95" d="M848.967 525.28H822.748V581.868H848.967V525.28Z" fill="#28CAB6"/>
<path id="Vector_96" d="M793.313 534.58V525.738H782.076V534.58H792.378H793.313Z" fill="#3F3D56"/>
<path id="Vector_97" d="M792.378 541.654H782.076V550.495H793.313V541.654H792.378Z" fill="#3F3D56"/>
<path id="Vector_98" d="M812.041 525.738H800.804V534.58H812.041V525.738Z" fill="#3F3D56"/>
<path id="Vector_99" d="M812.041 541.653H800.804V550.495H812.041V541.653Z" fill="#3F3D56"/>
<path id="Vector_100" d="M951.56 535.465V526.622H940.323V535.465H950.623H951.56Z" fill="#3F3D56"/>
<path id="Vector_101" d="M950.623 542.537H940.323V551.38H951.56V542.537H950.623Z" fill="#3F3D56"/>
<path id="Vector_102" d="M970.287 526.622H959.051V535.464H970.287V526.622Z" fill="#3F3D56"/>
<path id="Vector_103" d="M970.287 542.538H959.051V551.379H970.287V542.538Z" fill="#3F3D56"/>
<path id="Vector_104" d="M939.264 509.983L933.645 501.141L986.081 420.233H1120.92V432.611L1072.23 520.593L1016.05 531.203L939.264 509.983Z" fill="#229299"/>
<path id="Vector_105" d="M1144.25 483.309V417.174H1126.6V425.898L1121.04 419.936L1076.09 500.844L1068.6 507.918L1059.24 543.284L1076.09 582.188H1162.24V502.612L1144.25 483.309Z" fill="#28CAB6"/>
<path id="Vector_106" d="M1075.61 500.981H933.282V582.325H1075.61V500.981Z" fill="#F2F2F2"/>
<path id="Vector_107" d="M1056.28 527.378H1026.31V552.134H1056.28V527.378Z" fill="#2E8BBF"/>
<path id="Vector_108" d="M1013.28 525.28H987.063V581.868H1013.28V525.28Z" fill="#28CAB6"/>
<path id="Vector_109" d="M957.627 534.58V525.738H946.392V534.58H956.692H957.627Z" fill="#3F3D56"/>
<path id="Vector_110" d="M956.692 541.654H946.392V550.495H957.627V541.654H956.692Z" fill="#3F3D56"/>
<path id="Vector_111" d="M976.355 525.738H965.118V534.58H976.355V525.738Z" fill="#3F3D56"/>
<path id="Vector_112" d="M976.355 541.653H965.118V550.495H976.355V541.653Z" fill="#3F3D56"/>
<path id="Vector_113" d="M1115.87 535.465V526.622H1104.64V535.465H1114.94H1115.87Z" fill="#3F3D56"/>
<path id="Vector_114" d="M1114.94 542.537H1104.64V551.38H1115.87V542.537H1114.94Z" fill="#3F3D56"/>
<path id="Vector_115" d="M1134.6 526.622H1123.37V535.464H1134.6V526.622Z" fill="#3F3D56"/>
<path id="Vector_116" d="M1134.6 542.538H1123.37V551.379H1134.6V542.538Z" fill="#3F3D56"/>
<path id="Vector_117" d="M829.48 454.309L828.003 451.982L841.798 430.694H877.277V433.952L864.465 457.101L849.683 459.891L829.48 454.309Z" fill="#1C676B"/>
<path id="Vector_118" d="M877.239 430.995L865.413 452.283L863.442 454.144L860.979 463.45L865.413 473.686H888.079V452.749L877.239 430.995Z" fill="#CCCCCC"/>
<path id="Vector_119" d="M865.413 452.283H827.964V473.686H865.413V452.283Z" fill="#F2F2F2"/>
<path id="Vector_120" d="M843.83 461.506V457.284H838.464V461.506H843.382H843.83Z" fill="#3F3D56"/>
<path id="Vector_121" d="M843.382 464.884H838.464V469.106H843.83V464.884H843.382Z" fill="#3F3D56"/>
<path id="Vector_122" d="M852.771 457.285H847.406V461.506H852.771V457.285Z" fill="#3F3D56"/>
<path id="Vector_123" d="M852.771 464.883H847.406V469.105H852.771V464.883Z" fill="#3F3D56"/>
<path id="Vector_124" d="M995.115 453.327L993.636 451.002L1007.43 429.713H1042.91V432.97L1030.1 456.119L1015.32 458.911L995.115 453.327Z" fill="#1C676B"/>
<path id="Vector_125" d="M1042.91 429.713L1031.08 451.002L1029.11 452.863L1026.65 462.168L1031.08 472.403H1053.75V451.466L1042.91 429.713Z" fill="#CCCCCC"/>
<path id="Vector_126" d="M1031.08 451.001H993.637V472.404H1031.08V451.001Z" fill="#F2F2F2"/>
<path id="Vector_127" d="M1009.5 460.225V456.002H1004.14V460.225H1009.06H1009.5Z" fill="#3F3D56"/>
<path id="Vector_128" d="M1009.06 463.602H1004.14V467.822H1009.5V463.602H1009.06Z" fill="#3F3D56"/>
<path id="Vector_129" d="M1018.44 456.002H1013.08V460.224H1018.44V456.002Z" fill="#3F3D56"/>
<path id="Vector_130" d="M1018.44 463.601H1013.08V467.823H1018.44V463.601Z" fill="#3F3D56"/>
<path id="Vector_131" d="M1109.01 509.983L1103.39 501.141L1155.83 420.233H1290.67V432.611L1241.97 520.593L1185.79 531.203L1109.01 509.983Z" fill="#229299"/>
<path id="Vector_132" d="M1314 431.284V417.174H1296.34V425.898L1290.79 419.936L1245.84 500.844L1238.35 507.918L1228.99 543.284L1245.84 582.188H1331.99V502.612L1314 431.284Z" fill="#28CAB6"/>
<path id="Vector_133" d="M1245.36 500.981H1103.03V582.325H1245.36V500.981Z" fill="#F2F2F2"/>
<path id="Vector_134" d="M1225.69 527H1195.73V551.757H1225.69V527Z" fill="#2E8BBF"/>
<path id="Vector_135" d="M1183.56 525.738H1157.34V582.326H1183.56V525.738Z" fill="#28CAB6"/>
<path id="Vector_136" d="M1127.37 534.58V525.738H1116.14V534.58H1126.44H1127.37Z" fill="#3F3D56"/>
<path id="Vector_137" d="M1126.44 541.654H1116.14V550.495H1127.37V541.654H1126.44Z" fill="#3F3D56"/>
<path id="Vector_138" d="M1146.1 525.738H1134.86V534.58H1146.1V525.738Z" fill="#3F3D56"/>
<path id="Vector_139" d="M1146.1 541.653H1134.86V550.495H1146.1V541.653Z" fill="#3F3D56"/>
<path id="Vector_140" d="M1285.62 535.465V526.622H1274.38V535.465H1284.68H1285.62Z" fill="#3F3D56"/>
<path id="Vector_141" d="M1284.68 542.537H1274.38V551.38H1285.62V542.537H1284.68Z" fill="#3F3D56"/>
<path id="Vector_142" d="M1304.35 526.622H1293.11V535.464H1304.35V526.622Z" fill="#3F3D56"/>
<path id="Vector_143" d="M1304.35 542.538H1293.11V551.379H1304.35V542.538Z" fill="#3F3D56"/>
<path id="Vector_144" d="M1160.79 454.61L1159.31 452.283L1173.11 430.995H1208.58V434.253L1195.77 457.402L1180.99 460.192L1160.79 454.61Z" fill="#1C676B"/>
<path id="Vector_145" d="M1208.58 430.995L1196.76 452.283L1194.79 454.144L1192.32 463.45L1196.76 473.686H1219.42V452.749L1208.58 430.995Z" fill="#CCCCCC"/>
<path id="Vector_146" d="M1196.76 452.283H1159.31V473.686H1196.76V452.283Z" fill="#F2F2F2"/>
<path id="Vector_147" d="M1175.17 461.506V457.284H1169.81V461.506H1174.73H1175.17Z" fill="#3F3D56"/>
<path id="Vector_148" d="M1174.73 464.884H1169.81V469.106H1175.17V464.884H1174.73Z" fill="#3F3D56"/>
<path id="Vector_149" d="M1184.12 457.285H1178.75V461.506H1184.12V457.285Z" fill="#3F3D56"/>
<path id="Vector_150" d="M1184.12 464.883H1178.75V469.105H1184.12V464.883Z" fill="#3F3D56"/>
<path id="Vector_151" d="M1394.76 412.371H1390.23V581.447H1394.76V412.371Z" fill="#935D2B"/>
<path id="Vector_152" d="M1439 461.577C1439.01 463.437 1438.99 465.288 1438.94 467.13C1437.32 533.687 1352.81 534.055 1350.54 467.514C1350.47 465.673 1350.44 463.822 1350.43 461.962C1350.07 387.565 1394.06 327.061 1394.06 327.061C1394.06 327.061 1438.63 387.179 1439 461.577Z" fill="url(#paint3_linear)"/>
<path id="Vector_153" d="M1404.49 706.962H1139.84V716.161H1404.49V706.962Z" fill="#FBEE7F"/>
<path id="Vector_154" d="M995.643 706H731V715.198H995.643V706Z" fill="#FBEE7F"/>
</g>
<g id="sun">
<path id="Vector_155" d="M235 218C269.242 218 297 191.361 297 158.5C297 125.639 269.242 99 235 99C200.758 99 173 125.639 173 158.5C173 191.361 200.758 218 235 218Z" fill="url(#paint4_radial)"/>
<path id="Vector_156" d="M236.191 203.106C260.044 203.106 279.381 183.83 279.381 160.053C279.381 136.275 260.044 117 236.191 117C212.337 117 193 136.275 193 160.053C193 183.83 212.337 203.106 236.191 203.106Z" fill="#FDD91B"/>
</g>
<path id="Vector_157" d="M1440 584H0V587H1440V584Z" fill="#3F3D56"/>
<g id="smallCar">
<path id="Vector_158" d="M1080.22 658.181L1107.17 658.195L1107.17 653.93L1080.22 653.915L1080.22 658.181Z" fill="#3F3D56"/>
<path id="Vector_159" d="M885.17 654.384L890.732 655.667L1102.11 655.779L1104.01 651.365C1107.32 643.793 1108.46 635.451 1107.29 627.271C1106.38 621.175 1104.1 615.117 1098.92 612.486L1089.54 550.209L972.598 550L927.354 586.376C927.354 586.376 906.011 585.994 894.416 600.383C890.233 605.733 887.764 612.215 887.329 618.984L886.871 626.469L885.17 654.384Z" fill="#C7543B"/>
<path id="Vector_160" d="M931.741 679.854C946.156 679.854 957.842 668.206 957.842 653.836C957.842 639.467 946.156 627.819 931.741 627.819C917.326 627.819 905.64 639.467 905.64 653.836C905.64 668.206 917.326 679.854 931.741 679.854Z" fill="#3F3D56"/>
<path id="Vector_161" d="M931.741 667.53C939.328 667.53 945.478 661.399 945.478 653.836C945.478 646.274 939.328 640.143 931.741 640.143C924.154 640.143 918.004 646.274 918.004 653.836C918.004 661.399 924.154 667.53 931.741 667.53Z" fill="#84A1CD"/>
<path id="Vector_162" d="M1060.53 679.923C1074.95 679.923 1086.64 668.274 1086.64 653.905C1086.64 639.536 1074.95 627.887 1060.53 627.887C1046.12 627.887 1034.43 639.536 1034.43 653.905C1034.43 668.274 1046.12 679.923 1060.53 679.923Z" fill="#3F3D56"/>
<path id="Vector_163" d="M1060.53 667.599C1068.12 667.599 1074.27 661.468 1074.27 653.905C1074.27 646.342 1068.12 640.211 1060.53 640.211C1052.95 640.211 1046.8 646.342 1046.8 653.905C1046.8 661.468 1052.95 667.599 1060.53 667.599Z" fill="#84A1CD"/>
<path id="Vector_164" d="M945.475 582.618L1008.61 582.646H1016.32L1029.34 582.656V581.708L1029.34 570.302L1029.35 557.493H1020.7L1012.99 557.484L999.336 557.475H991.628L975.866 557.466L945.475 582.618Z" fill="white"/>
<path id="Vector_165" d="M1039.61 582.665L1072.98 582.683L1072.99 576.156V564.749L1073 557.522H1068.11L1060.4 557.513L1039.62 557.504L1039.61 582.665Z" fill="white"/>
<path id="Vector_166" d="M1025.04 609.528L1029.32 609.53L1029.33 601.426L1025.05 601.424L1025.04 609.528Z" fill="#3F3D56"/>
<path id="Vector_167" d="M962.581 594.14L962.583 589.875L954.453 589.87L954.451 594.136L962.581 594.14Z" fill="#3F3D56"/>
<path id="Vector_168" d="M959.587 591.75L959.116 591.75C956.744 591.748 954.47 590.808 952.794 589.135C951.118 587.463 950.177 585.195 950.178 582.83C950.179 580.466 951.123 578.199 952.801 576.528C954.479 574.858 956.754 573.92 959.126 573.921L959.596 573.921L959.587 591.75Z" fill="#3F3D56"/>
<path id="Vector_169" d="M886.871 626.469C890.107 626.82 893.363 626.021 896.066 624.214C898.769 622.406 900.746 619.706 901.647 616.588C902.549 613.471 902.318 610.136 900.995 607.172C899.673 604.207 897.343 601.803 894.416 600.383C890.233 605.733 887.764 612.215 887.329 618.984L886.871 626.469Z" fill="#FDD91B"/>
<path id="Vector_170" d="M1012.99 557.484L1029.34 581.708L1029.34 570.302L1020.7 557.493L1012.99 557.484Z" fill="#F2F2F2"/>
<path id="Vector_171" d="M1060.4 557.513L1072.99 576.156V564.749L1068.11 557.522L1060.4 557.513Z" fill="#F2F2F2"/>
<path id="Vector_172" d="M991.628 557.475L1008.61 582.646H1016.32L999.337 557.475H991.628Z" fill="#F2F2F2"/>
</g>
<g id="bigCar">
<path id="Vector_173" d="M516.549 731.27H472.171V738.292H516.549V731.27Z" fill="#3F3D56"/>
<path id="Vector_174" d="M837.405 732.843L828.249 734.954L480.272 735.139L477.143 727.872C471.685 715.407 469.812 701.674 471.733 688.208C473.231 678.172 476.987 668.199 485.517 663.867L500.959 561.343L693.477 561L767.961 620.885C767.961 620.885 803.097 620.255 822.185 643.943C828.226 651.446 832.662 661.386 833.852 674.565L834.605 686.888L837.405 732.843Z" fill="url(#paint5_linear)"/>
<path id="Vector_175" d="M760.976 773.96C784.707 773.96 803.945 754.783 803.945 731.128C803.945 707.473 784.707 688.296 760.976 688.296C737.245 688.296 718.007 707.473 718.007 731.128C718.007 754.783 737.245 773.96 760.976 773.96Z" fill="#3F3D56"/>
<path id="Vector_176" d="M760.976 753.671C773.466 753.671 783.591 743.578 783.591 731.128C783.591 718.678 773.466 708.585 760.976 708.585C748.486 708.585 738.361 718.678 738.361 731.128C738.361 743.578 748.486 753.671 760.976 753.671Z" fill="#84A1CD"/>
<path id="Vector_177" d="M548.949 774.073C572.681 774.073 591.918 754.896 591.918 731.241C591.918 707.586 572.681 688.409 548.949 688.409C525.218 688.409 505.981 707.586 505.981 731.241C505.981 754.896 525.218 774.073 548.949 774.073Z" fill="#3F3D56"/>
<path id="Vector_178" d="M548.949 753.784C561.439 753.784 571.565 743.691 571.565 731.241C571.565 718.791 561.439 708.698 548.949 708.698C536.459 708.698 526.334 718.791 526.334 731.241C526.334 743.691 536.459 753.784 548.949 753.784Z" fill="#84A1CD"/>
<path id="Vector_179" d="M738.368 613.884L634.424 613.93H621.736L600.311 613.945V612.387L600.296 593.609L600.281 572.524H614.533L627.222 572.509L649.699 572.494H662.387L688.335 572.479L738.368 613.884Z" fill="white"/>
<path id="Vector_180" d="M583.399 613.96L528.465 613.99L528.45 603.245V584.468L528.435 572.569H536.479L549.167 572.554L583.384 572.539L583.399 613.96Z" fill="white"/>
<path id="Vector_181" d="M607.373 644.846H600.328V658.187H607.373V644.846Z" fill="#3F3D56"/>
<path id="Vector_182" d="M723.59 632.845L723.586 625.824L710.202 625.831L710.206 632.852L723.59 632.845Z" fill="#3F3D56"/>
<path id="Vector_183" d="M715.127 599.563H715.902C719.806 599.563 723.551 601.109 726.312 603.861C729.073 606.614 730.624 610.346 730.624 614.238C730.624 618.13 729.073 621.863 726.312 624.615C723.551 627.367 719.806 628.913 715.902 628.913H715.127V599.563Z" fill="#3F3D56"/>
<path id="Vector_184" d="M834.605 686.888C829.278 687.465 823.918 686.15 819.468 683.175C815.018 680.199 811.765 675.754 810.28 670.621C808.796 665.489 809.176 659.999 811.354 655.119C813.531 650.239 817.367 646.281 822.185 643.943C828.226 651.446 832.662 661.386 833.852 674.565L834.605 686.888Z" fill="#FDD91B"/>
<path id="Vector_185" d="M627.222 572.509L600.311 612.387L600.296 593.609L614.534 572.524L627.222 572.509Z" fill="#F2F2F2"/>
<path id="Vector_186" d="M549.312 573.048L528.595 603.739V584.962L536.623 573.063L549.312 573.048Z" fill="#F2F2F2"/>
<path id="Vector_187" d="M662.387 572.494L634.424 613.93H621.736L649.699 572.494H662.387Z" fill="#F2F2F2"/>
</g>
<path id="Vector_188" d="M1439 819H0V822H1439V819Z" fill="#3F3D56"/>
<path id="Vector_189" d="M298.088 668.825C298.704 668.825 299.203 668.327 299.203 667.713C299.203 667.099 298.704 666.601 298.088 666.601C297.472 666.601 296.972 667.099 296.972 667.713C296.972 668.327 297.472 668.825 298.088 668.825Z" fill="#D0CDE1"/>
<g id="grass">
<path id="Vector_190" d="M264.656 987C264.656 987 257.674 1002.15 252.006 1006.4C246.266 1002.14 239.147 987 239.147 987C239.147 987 232.165 1002.15 226.497 1006.4C220.757 1002.14 213.638 987 213.638 987C213.638 987 193.809 1007.21 193.864 1016.78C193.866 1017.01 193.879 1017.25 193.905 1017.49C194.582 1023.76 215.083 1025.35 226.344 1022.4C234.74 1024.31 243.458 1024.31 251.853 1022.4C263.067 1025.4 283.985 1023.68 284.596 1017.34C284.619 1017.11 284.63 1016.87 284.629 1016.63C284.574 1007.06 264.656 987 264.656 987Z" fill="#4F8536"/>
<path id="Vector_191" d="M681.228 987C681.228 987 674.246 1002.15 668.578 1006.4C662.838 1002.14 655.719 987 655.719 987C655.719 987 648.737 1002.15 643.069 1006.4C637.329 1002.14 630.21 987 630.21 987C630.21 987 610.382 1007.21 610.436 1016.78C610.438 1017.01 610.451 1017.25 610.477 1017.49C611.154 1023.76 631.655 1025.35 642.917 1022.4C651.312 1024.31 660.03 1024.31 668.425 1022.4C679.639 1025.4 700.557 1023.68 701.168 1017.34C701.191 1017.11 701.202 1016.87 701.201 1016.63C701.146 1007.06 681.228 987 681.228 987Z" fill="#42F515"/>
<path id="Vector_192" d="M1095.1 987C1095.1 987 1088.12 1002.15 1082.45 1006.4C1076.71 1002.14 1069.6 987 1069.6 987C1069.6 987 1062.61 1002.15 1056.94 1006.4C1051.2 1002.14 1044.09 987 1044.09 987C1044.09 987 1024.26 1007.21 1024.31 1016.78C1024.31 1017.01 1024.33 1017.25 1024.35 1017.49C1025.03 1023.76 1045.53 1025.35 1056.79 1022.4C1065.19 1024.31 1073.91 1024.31 1082.3 1022.4C1093.52 1025.4 1114.43 1023.68 1115.04 1017.34C1115.07 1017.11 1115.08 1016.87 1115.08 1016.63C1115.02 1007.06 1095.1 987 1095.1 987Z" fill="#4F8536"/>
</g>
<g id="clouds">
<path id="Vector_193" d="M286.486 185.088L286.303 185.187C284.329 186.263 282.117 186.831 279.867 186.839C277.617 186.846 275.401 186.294 273.42 185.232C273.305 185.171 273.192 185.11 273.079 185.05C271.098 183.996 268.885 183.448 266.639 183.456C264.393 183.463 262.184 184.026 260.21 185.094L260.039 185.187C258.065 186.263 255.853 186.831 253.603 186.839C251.353 186.847 249.137 186.294 247.156 185.232C247.037 185.168 246.919 185.105 246.802 185.043C244.844 183.994 242.656 183.443 240.433 183.439C238.21 183.435 236.02 183.978 234.058 185.021C228.066 188.238 219.964 193.738 220 199.949C220.002 200.195 220.015 200.441 220.042 200.685C220.739 207.136 241.846 208.779 253.442 205.739C262.085 207.705 271.062 207.705 279.706 205.739C291.252 208.828 312.789 207.058 313.418 200.534C313.442 200.289 313.453 200.044 313.452 199.798C313.416 193.583 305.243 188.14 299.213 184.969C297.246 183.943 295.055 183.417 292.834 183.438C290.614 183.458 288.434 184.025 286.486 185.088Z" fill="url(#paint6_angular)"/>
<path id="Vector_194" d="M719.784 76.7766L719.465 76.9435C716.022 78.7538 712.164 79.7089 708.24 79.7221C704.315 79.7354 700.45 78.8064 696.994 77.0194C696.794 76.9161 696.596 76.8141 696.399 76.7134C692.943 74.94 689.084 74.0185 685.166 74.0315C681.249 74.0445 677.396 74.9916 673.953 76.7879L673.655 76.9436C670.212 78.7539 666.354 79.7089 662.429 79.7222C658.505 79.7354 654.639 78.8065 651.183 77.0195C650.976 76.9122 650.771 76.8064 650.566 76.7019C647.151 74.9366 643.335 74.0095 639.458 74.0029C635.58 73.9963 631.761 74.9104 628.339 76.6641C617.887 82.0757 603.756 91.3282 603.818 101.777C603.821 102.191 603.845 102.604 603.891 103.014C605.107 113.866 641.923 116.631 662.148 111.517C677.224 114.824 692.882 114.824 707.958 111.517C728.096 116.713 765.661 113.736 766.759 102.76C766.801 102.349 766.82 101.936 766.818 101.523C766.756 91.0678 752.5 81.9122 741.982 76.5768C738.551 74.8509 734.73 73.9661 730.857 74.001C726.985 74.0359 723.181 74.9893 719.784 76.7766Z" fill="url(#paint7_angular)"/>
<path id="Vector_195" d="M1089.19 201.874L1088.96 201.987C1086.42 203.209 1083.58 203.854 1080.69 203.862C1077.8 203.871 1074.96 203.244 1072.41 202.038C1072.27 201.968 1072.12 201.9 1071.98 201.832C1069.43 200.635 1066.59 200.012 1063.71 200.021C1060.82 200.03 1057.99 200.669 1055.45 201.882L1055.23 201.987C1052.7 203.209 1049.86 203.854 1046.97 203.863C1044.08 203.871 1041.23 203.244 1038.69 202.038C1038.54 201.966 1038.38 201.894 1038.23 201.824C1035.72 200.632 1032.91 200.006 1030.06 200.002C1027.2 199.997 1024.39 200.615 1021.87 201.798C1014.18 205.451 1003.77 211.697 1003.82 218.75C1003.82 219.029 1003.84 219.307 1003.87 219.585C1004.77 226.909 1031.87 228.776 1046.76 225.324C1057.86 227.556 1069.39 227.556 1080.49 225.324C1095.31 228.831 1122.97 226.822 1123.77 219.413C1123.81 219.135 1123.82 218.857 1123.82 218.578C1123.77 211.521 1113.28 205.341 1105.53 201.739C1103.01 200.574 1100.19 199.977 1097.34 200.001C1094.49 200.024 1091.69 200.668 1089.19 201.874Z" fill="url(#paint8_angular)"/>
</g>
<path id="Vector_196" d="M1442 1020.91H3V1023.91H1442V1020.91Z" fill="#3F3D56"/>
</g>
<defs>
<linearGradient id="paint0_linear" x1="721" y1="583" x2="721" y2="819" gradientUnits="userSpaceOnUse">
<stop stop-color="#504949"/>
<stop offset="1" stop-color="#BFB4B4"/>
</linearGradient>
<linearGradient id="paint1_linear" x1="719.5" y1="0" x2="719.5" y2="583" gradientUnits="userSpaceOnUse">
<stop stop-color="#2EC0E0"/>
<stop offset="1" stop-color="#D4F6FE"/>
</linearGradient>
<linearGradient id="paint2_linear" x1="493.683" y1="327.061" x2="493.683" y2="517.291" gradientUnits="userSpaceOnUse">
<stop offset="0.0625" stop-color="#5CCA35"/>
<stop offset="1" stop-color="#4C8638"/>
</linearGradient>
<linearGradient id="paint3_linear" x1="1394.71" y1="327.061" x2="1394.71" y2="517.234" gradientUnits="userSpaceOnUse">
<stop stop-color="#42F515"/>
<stop offset="1" stop-color="#476D3D"/>
</linearGradient>
<radialGradient id="paint4_radial" cx="0" cy="0" r="1" gradientUnits="userSpaceOnUse" gradientTransform="translate(235 158.5) rotate(90) scale(59.5 62)">
<stop stop-color="#FFE872"/>
<stop offset="0.713542" stop-color="#FFE872"/>
<stop offset="1" stop-color="#FFE872" stop-opacity="0"/>
</radialGradient>
<linearGradient id="paint5_linear" x1="654.203" y1="561" x2="654.203" y2="735.139" gradientUnits="userSpaceOnUse">
<stop stop-color="#E95570"/>
<stop offset="1" stop-color="#D51033"/>
</linearGradient>
<radialGradient id="paint6_angular" cx="0" cy="0" r="1" gradientUnits="userSpaceOnUse" gradientTransform="translate(266.726 195.326) rotate(90) scale(11.8891 46.7259)">
<stop offset="0.573857" stop-color="#FFFEFE"/>
<stop offset="0.923789" stop-color="#E6E6E6"/>
</radialGradient>
<radialGradient id="paint7_angular" cx="0" cy="0" r="1" gradientUnits="userSpaceOnUse" gradientTransform="translate(685.318 94) rotate(90) scale(20 81.5)">
<stop offset="0.0758931" stop-color="#FDF7F7"/>
<stop offset="0.963542" stop-color="#F2EEEE"/>
</radialGradient>
<radialGradient id="paint8_angular" cx="0" cy="0" r="1" gradientUnits="userSpaceOnUse" gradientTransform="translate(1063.82 213.5) rotate(90) scale(13.5 60)">
<stop offset="0.0332695" stop-color="#E3FBFE"/>
<stop offset="0.718494" stop-color="#FAFAFF"/>
</radialGradient>
<clipPath id="clip0">
<rect width="1440" height="1024" fill="white"/>
</clipPath>
</defs>
</svg>
